<svg width="43" height="41" viewBox="0 0 43 41" fill="none" xmlns="http://www.w3.org/2000/svg">
<path d="M21.5 0.75C22.9587 0.75 24.3576 1.32946 25.3891 2.36091C26.4205 3.39236 27 4.79131 27 6.25C27 7.70869 26.4205 9.10764 25.3891 10.1391C24.3576 11.1705 22.9587 11.75 21.5 11.75C20.0413 11.75 18.6424 11.1705 17.6109 10.1391C16.5795 9.10764 16 7.70869 16 6.25C16 4.79131 16.5795 3.39236 17.6109 2.36091C18.6424 1.32946 20.0413 0.75 21.5 0.75ZM21.5 16.375C24.862 16.375 27.8674 17.0574 30.0044 18.1259C32.1862 19.2168 33.25 20.5854 33.25 21.875V24.25H9.75V21.875C9.75 20.5854 10.8138 19.2168 12.9956 18.1259C15.1326 17.0574 18.138 16.375 21.5 16.375Z" stroke="black" stroke-width="1.5"/>
<path d="M0.424094 38L2.92009 32.4H4.20009L6.70409 38H5.34409L3.29609 33.056H3.80809L1.75209 38H0.424094ZM1.67209 36.8L2.01609 35.816H4.89609L5.24809 36.8H1.67209ZM9.88697 38.096C9.45497 38.096 9.0523 38.0267 8.67897 37.888C8.31097 37.744 7.99097 37.5413 7.71897 37.28C7.44697 37.0187 7.23364 36.712 7.07897 36.36C6.92964 36.008 6.85497 35.6213 6.85497 35.2C6.85497 34.7787 6.92964 34.392 7.07897 34.04C7.23364 33.688 7.44697 33.3813 7.71897 33.12C7.9963 32.8587 8.31897 32.6587 8.68697 32.52C9.05497 32.376 9.45764 32.304 9.89497 32.304C10.3803 32.304 10.8176 32.3893 11.207 32.56C11.6016 32.7253 11.9323 32.9707 12.199 33.296L11.367 34.064C11.175 33.8453 10.9616 33.6827 10.727 33.576C10.4923 33.464 10.2363 33.408 9.95897 33.408C9.69764 33.408 9.45764 33.4507 9.23897 33.536C9.0203 33.6213 8.83097 33.744 8.67097 33.904C8.51097 34.064 8.38564 34.2533 8.29497 34.472C8.20964 34.6907 8.16697 34.9333 8.16697 35.2C8.16697 35.4667 8.20964 35.7093 8.29497 35.928C8.38564 36.1467 8.51097 36.336 8.67097 36.496C8.83097 36.656 9.0203 36.7787 9.23897 36.864C9.45764 36.9493 9.69764 36.992 9.95897 36.992C10.2363 36.992 10.4923 36.9387 10.727 36.832C10.9616 36.72 11.175 36.552 11.367 36.328L12.199 37.096C11.9323 37.4213 11.6016 37.6693 11.207 37.84C10.8176 38.0107 10.3776 38.096 9.88697 38.096ZM15.637 38.096C15.205 38.096 14.8023 38.0267 14.429 37.888C14.061 37.744 13.741 37.5413 13.469 37.28C13.197 37.0187 12.9836 36.712 12.829 36.36C12.6796 36.008 12.605 35.6213 12.605 35.2C12.605 34.7787 12.6796 34.392 12.829 34.04C12.9836 33.688 13.197 33.3813 13.469 33.12C13.7463 32.8587 14.069 32.6587 14.437 32.52C14.805 32.376 15.2076 32.304 15.645 32.304C16.1303 32.304 16.5676 32.3893 16.957 32.56C17.3516 32.7253 17.6823 32.9707 17.949 33.296L17.117 34.064C16.925 33.8453 16.7116 33.6827 16.477 33.576C16.2423 33.464 15.9863 33.408 15.709 33.408C15.4476 33.408 15.2076 33.4507 14.989 33.536C14.7703 33.6213 14.581 33.744 14.421 33.904C14.261 34.064 14.1356 34.2533 14.045 34.472C13.9596 34.6907 13.917 34.9333 13.917 35.2C13.917 35.4667 13.9596 35.7093 14.045 35.928C14.1356 36.1467 14.261 36.336 14.421 36.496C14.581 36.656 14.7703 36.7787 14.989 36.864C15.2076 36.9493 15.4476 36.992 15.709 36.992C15.9863 36.992 16.2423 36.9387 16.477 36.832C16.7116 36.72 16.925 36.552 17.117 36.328L17.949 37.096C17.6823 37.4213 17.3516 37.6693 16.957 37.84C16.5676 38.0107 16.1276 38.096 15.637 38.096ZM21.427 38.096C20.9843 38.096 20.5736 38.024 20.195 37.88C19.8216 37.736 19.4963 37.5333 19.219 37.272C18.947 37.0107 18.7336 36.704 18.579 36.352C18.4296 36 18.355 35.616 18.355 35.2C18.355 34.784 18.4296 34.4 18.579 34.048C18.7336 33.696 18.9496 33.3893 19.227 33.128C19.5043 32.8667 19.8296 32.664 20.203 32.52C20.5763 32.376 20.9816 32.304 21.419 32.304C21.8616 32.304 22.267 32.376 22.635 32.52C23.0083 32.664 23.331 32.8667 23.603 33.128C23.8803 33.3893 24.0963 33.696 24.251 34.048C24.4056 34.3947 24.483 34.7787 24.483 35.2C24.483 35.616 24.4056 36.0027 24.251 36.36C24.0963 36.712 23.8803 37.0187 23.603 37.28C23.331 37.536 23.0083 37.736 22.635 37.88C22.267 38.024 21.8643 38.096 21.427 38.096ZM21.419 36.992C21.6696 36.992 21.899 36.9493 22.107 36.864C22.3203 36.7787 22.507 36.656 22.667 36.496C22.827 36.336 22.9496 36.1467 23.035 35.928C23.1256 35.7093 23.171 35.4667 23.171 35.2C23.171 34.9333 23.1256 34.6907 23.035 34.472C22.9496 34.2533 22.827 34.064 22.667 33.904C22.5123 33.744 22.3283 33.6213 22.115 33.536C21.9016 33.4507 21.6696 33.408 21.419 33.408C21.1683 33.408 20.9363 33.4507 20.723 33.536C20.515 33.6213 20.331 33.744 20.171 33.904C20.011 34.064 19.8856 34.2533 19.795 34.472C19.7096 34.6907 19.667 34.9333 19.667 35.2C19.667 35.4613 19.7096 35.704 19.795 35.928C19.8856 36.1467 20.0083 36.336 20.163 36.496C20.323 36.656 20.5096 36.7787 20.723 36.864C20.9363 36.9493 21.1683 36.992 21.419 36.992ZM27.945 38.096C27.1503 38.096 26.529 37.8747 26.081 37.432C25.633 36.9893 25.409 36.3573 25.409 35.536V32.4H26.705V35.488C26.705 36.0213 26.8143 36.4053 27.033 36.64C27.2516 36.8747 27.5583 36.992 27.953 36.992C28.3476 36.992 28.6543 36.8747 28.873 36.64C29.0916 36.4053 29.201 36.0213 29.201 35.488V32.4H30.481V35.536C30.481 36.3573 30.257 36.9893 29.809 37.432C29.361 37.8747 28.7396 38.096 27.945 38.096ZM31.7617 38V32.4H32.8337L36.1377 36.432H35.6177V32.4H36.8977V38H35.8337L32.5217 33.968H33.0417V38H31.7617ZM39.3826 38V33.456H37.5906V32.4H42.4706V33.456H40.6786V38H39.3826Z" fill="black"/>
</svg>
