<svg width="45" height="41" viewBox="0 0 45 41" fill="none" xmlns="http://www.w3.org/2000/svg">
<path d="M24.4781 16.4617L24.7054 15.9666L24.2126 15.7346C23.86 15.5686 23.4708 15.4956 23.082 15.5227C22.6932 15.5498 22.3179 15.676 21.9917 15.8892C21.6655 16.1025 21.3994 16.3957 21.2187 16.741C21.0401 17.0822 20.9508 17.463 20.959 17.8478C20.951 18.2672 20.9732 18.6865 21.0254 19.1027C21.108 20.0907 20.8655 21.0787 20.3346 21.9162L20.3254 21.9306L20.3172 21.9457C19.8582 22.7804 19.1671 23.4644 18.3277 23.9148L18.3246 23.9165C17.4516 24.392 16.4428 24.5564 15.464 24.3825L15.4631 24.3824C13.1932 23.983 11.484 22.7051 10.0936 20.8341C8.86645 19.173 8.06026 17.2392 7.74406 15.1983L7.74296 15.1912L7.74167 15.1841C7.21729 12.3004 7.77764 9.32475 9.31494 6.82935L9.31951 6.82193L9.32385 6.81436C10.2229 5.24573 11.4537 3.89239 12.9303 2.84894C14.4068 1.8055 16.0934 1.09713 17.8722 0.773361L17.8722 0.773405L17.8791 0.772066C20.3624 0.287381 22.9354 0.60068 25.2298 1.66713L25.2298 1.66722L25.2393 1.67143C27.2837 2.57492 29.0432 4.01848 30.3287 5.84693C30.3681 5.90388 30.4374 5.99179 30.4762 6.0411C30.4891 6.05751 30.4987 6.06965 30.5027 6.07494L30.6677 6.29494H30.9427H30.9834H31.6112L31.5286 5.67256C31.4407 5.01043 31.596 4.53505 31.8807 4.15121C32.1805 3.74715 32.6496 3.41053 33.2433 3.0975L33.2437 3.09729C33.5713 2.9242 33.9233 2.78412 34.3073 2.6355C34.3373 2.62393 34.3674 2.61229 34.3977 2.60058C34.7478 2.46539 35.1243 2.31999 35.489 2.14206L35.508 2.13282L35.5261 2.12216C35.9396 1.87966 36.3277 1.59632 36.6846 1.27638C36.7093 1.25551 36.732 1.23421 36.7524 1.21385C37.3198 2.73449 37.4962 4.20874 36.9318 5.68923L36.9279 5.69949L36.9244 5.70991C36.7808 6.13711 36.542 6.52607 36.2259 6.84739C35.9099 7.1687 35.525 7.41396 35.1002 7.56462L35.0848 7.57007L35.0698 7.57643C34.8747 7.65898 34.7108 7.80122 34.6016 7.98268C34.5025 8.14558 34.4034 8.30846 34.3043 8.47136C33.7797 9.33379 33.2546 10.1969 32.736 11.0663L32.7299 11.0765L32.7243 11.0869C32.6164 11.2869 32.5581 11.5098 32.5544 11.737L32.5543 11.7441L32.5543 11.7512C32.5631 12.6806 32.3023 13.5926 31.8036 14.3768L31.8035 14.3768L31.7993 14.3837C31.2762 15.2336 30.5073 15.9047 29.5944 16.3079L29.5943 16.3078L29.5849 16.3122C28.9777 16.5942 28.4551 17.0306 28.0692 17.5776C27.0051 18.9964 25.8022 20.3057 24.4784 21.486C24.1236 21.7947 23.7191 22.0413 23.2821 22.2152L23.282 22.2151L23.2744 22.2183C23.1979 22.2501 23.1148 22.2628 23.0322 22.2555C22.9497 22.2481 22.8701 22.2208 22.8004 22.176C22.7307 22.1312 22.6729 22.0701 22.6319 21.9981C22.591 21.926 22.5681 21.8451 22.5653 21.7623L22.5646 21.7421L22.5625 21.7221C22.496 21.1053 22.6061 20.4822 22.88 19.9254L22.8845 19.9163L22.8886 19.907C23.2051 19.1985 23.5329 18.4954 23.865 17.7834C24.0683 17.3473 24.2733 16.9078 24.4781 16.4617ZM23.1828 20.4429L22.9761 20.9023L23.4156 21.1484L23.5287 21.2117L23.8888 21.4134L24.183 21.124C28.0363 17.3349 30.9999 12.8868 33.7629 8.38895L34.0506 7.92068L33.5825 7.63265L32.1715 6.76437L31.7398 6.49866L31.4399 6.90742C31.2681 7.14149 31.0934 7.37768 30.9174 7.61557C30.5253 8.14569 30.1269 8.68421 29.7414 9.22643C27.5928 12.163 25.6873 15.2699 24.0438 18.5162L24.0438 18.5162L24.0412 18.5216C23.838 18.9339 23.6498 19.3699 23.4685 19.7899C23.3717 20.0141 23.2769 20.2338 23.1828 20.4429ZM14.8997 16.1322L14.9002 16.1212L14.9003 16.1102C14.9055 15.4884 14.6696 14.8887 14.2421 14.4371C13.8146 13.9856 13.2287 13.7172 12.6076 13.6884L12.6076 13.6883L12.5964 13.688C12.2852 13.6799 11.9754 13.7332 11.6848 13.8448C11.3941 13.9564 11.1283 14.1241 10.9025 14.3385C10.6766 14.5528 10.4952 14.8095 10.3686 15.094C10.242 15.3784 10.1727 15.685 10.1646 15.9962C10.1564 16.3075 10.2097 16.6173 10.3213 16.9079C10.4329 17.1986 10.6007 17.4644 10.815 17.6902C11.0294 17.916 11.2861 18.0974 11.5705 18.224C11.8549 18.3506 12.1615 18.42 12.4728 18.4281L12.4728 18.4283L12.4865 18.4283C13.1067 18.429 13.7034 18.1909 14.1527 17.7634C14.6021 17.3359 14.8696 16.7517 14.8997 16.1322ZM18.3818 7.5838V7.58379C18.8511 7.58203 19.3094 7.44026 19.6978 7.17657C20.0879 6.91177 20.3897 6.53617 20.5642 6.09822L20.0533 5.8946L20.5642 6.09822C20.7387 5.66027 20.7781 5.18007 20.6771 4.71956C20.5761 4.25905 20.3394 3.83937 19.9976 3.51466C19.6558 3.18995 19.2246 2.97511 18.7595 2.89785C18.2944 2.82059 17.8168 2.88446 17.3884 3.08122C16.96 3.27798 16.6003 3.5986 16.3559 4.00172C16.1114 4.40484 15.9934 4.87196 16.0169 5.34282C16.0473 5.9488 16.3099 6.51979 16.7503 6.93713C17.1907 7.35447 17.775 7.58607 18.3818 7.5838ZM23.5208 5.13193L23.9058 5.52467L23.5208 5.13193C23.2967 5.3516 23.1187 5.61377 22.9972 5.90308C22.8757 6.19241 22.8132 6.50305 22.8133 6.81684C22.8134 7.28136 22.9506 7.73552 23.2078 8.12235C23.465 8.50919 23.8306 8.81148 24.2589 8.99133C24.6872 9.17117 25.1591 9.22056 25.6153 9.1333C26.0716 9.04604 26.4919 8.82601 26.8236 8.50081C27.1553 8.17561 27.3836 7.75972 27.4799 7.30528C27.5762 6.85085 27.5361 6.3781 27.3648 5.94633C27.1935 5.51456 26.8985 5.14298 26.5168 4.8782C26.1351 4.61341 25.6838 4.46721 25.2194 4.45792C24.9056 4.45164 24.5938 4.50802 24.3022 4.62376C24.0105 4.73949 23.7448 4.91225 23.5208 5.13193ZM13.8847 7.16798L13.6529 7.66672L13.8847 7.16798C13.6036 7.03729 13.2996 6.96326 12.9898 6.9501C12.6801 6.93693 12.3709 6.9849 12.0797 7.09126C11.7885 7.19762 11.5211 7.36029 11.2928 7.56999C11.0645 7.77968 10.8797 8.03229 10.7491 8.31339C10.6184 8.59449 10.5443 8.89857 10.5312 9.20829C10.5046 9.83378 10.7276 10.4442 11.1511 10.9053C11.5746 11.3664 12.1639 11.6404 12.7894 11.6669C13.4149 11.6935 14.0253 11.4706 14.4864 11.0471C14.9475 10.6236 15.2215 10.0342 15.248 9.40875C15.2612 9.09904 15.2132 8.78977 15.1069 8.49859C15.0005 8.20742 14.8378 7.94005 14.6281 7.71174C14.4185 7.48343 14.1658 7.29866 13.8847 7.16798Z" stroke="black" stroke-width="1.1"/>
<path d="M0.205344 38L2.70134 32.4H3.98134L6.48534 38H5.12534L3.07734 33.056H3.58934L1.53334 38H0.205344ZM1.45334 36.8L1.79734 35.816H4.67734L5.02934 36.8H1.45334ZM7.06634 38V32.4H9.49034C9.99168 32.4 10.4237 32.4827 10.7863 32.648C11.149 32.808 11.429 33.04 11.6263 33.344C11.8237 33.648 11.9223 34.0107 11.9223 34.432C11.9223 34.848 11.8237 35.208 11.6263 35.512C11.429 35.8107 11.149 36.04 10.7863 36.2C10.4237 36.36 9.99168 36.44 9.49034 36.44H7.78634L8.36234 35.872V38H7.06634ZM10.6263 38L9.22634 35.968H10.6103L12.0263 38H10.6263ZM8.36234 36.016L7.78634 35.408H9.41834C9.81834 35.408 10.117 35.3227 10.3143 35.152C10.5117 34.976 10.6103 34.736 10.6103 34.432C10.6103 34.1227 10.5117 33.8827 10.3143 33.712C10.117 33.5413 9.81834 33.456 9.41834 33.456H7.78634L8.36234 32.84V36.016ZM14.031 38V33.456H12.239V32.4H17.119V33.456H15.327V38H14.031ZM19.051 38L17.219 32.4H18.563L20.155 37.36H19.483L21.147 32.4H22.347L23.947 37.36H23.299L24.931 32.4H26.171L24.339 38H22.947L21.531 33.648H21.899L20.443 38H19.051ZM29.552 38.096C29.1093 38.096 28.6986 38.024 28.32 37.88C27.9466 37.736 27.6213 37.5333 27.344 37.272C27.072 37.0107 26.8586 36.704 26.704 36.352C26.5546 36 26.48 35.616 26.48 35.2C26.48 34.784 26.5546 34.4 26.704 34.048C26.8586 33.696 27.0746 33.3893 27.352 33.128C27.6293 32.8667 27.9546 32.664 28.328 32.52C28.7013 32.376 29.1066 32.304 29.544 32.304C29.9866 32.304 30.392 32.376 30.76 32.52C31.1333 32.664 31.456 32.8667 31.728 33.128C32.0053 33.3893 32.2213 33.696 32.376 34.048C32.5306 34.3947 32.608 34.7787 32.608 35.2C32.608 35.616 32.5306 36.0027 32.376 36.36C32.2213 36.712 32.0053 37.0187 31.728 37.28C31.456 37.536 31.1333 37.736 30.76 37.88C30.392 38.024 29.9893 38.096 29.552 38.096ZM29.544 36.992C29.7946 36.992 30.024 36.9493 30.232 36.864C30.4453 36.7787 30.632 36.656 30.792 36.496C30.952 36.336 31.0746 36.1467 31.16 35.928C31.2506 35.7093 31.296 35.4667 31.296 35.2C31.296 34.9333 31.2506 34.6907 31.16 34.472C31.0746 34.2533 30.952 34.064 30.792 33.904C30.6373 33.744 30.4533 33.6213 30.24 33.536C30.0266 33.4507 29.7946 33.408 29.544 33.408C29.2933 33.408 29.0613 33.4507 28.848 33.536C28.64 33.6213 28.456 33.744 28.296 33.904C28.136 34.064 28.0106 34.2533 27.92 34.472C27.8346 34.6907 27.792 34.9333 27.792 35.2C27.792 35.4613 27.8346 35.704 27.92 35.928C28.0106 36.1467 28.1333 36.336 28.288 36.496C28.448 36.656 28.6346 36.7787 28.848 36.864C29.0613 36.9493 29.2933 36.992 29.544 36.992ZM33.582 38V32.4H36.006C36.5073 32.4 36.9393 32.4827 37.302 32.648C37.6646 32.808 37.9446 33.04 38.142 33.344C38.3393 33.648 38.438 34.0107 38.438 34.432C38.438 34.848 38.3393 35.208 38.142 35.512C37.9446 35.8107 37.6646 36.04 37.302 36.2C36.9393 36.36 36.5073 36.44 36.006 36.44H34.302L34.878 35.872V38H33.582ZM37.142 38L35.742 35.968H37.126L38.542 38H37.142ZM34.878 36.016L34.302 35.408H35.934C36.334 35.408 36.6326 35.3227 36.83 35.152C37.0273 34.976 37.126 34.736 37.126 34.432C37.126 34.1227 37.0273 33.8827 36.83 33.712C36.6326 33.5413 36.334 33.456 35.934 33.456H34.302L34.878 32.84V36.016ZM40.6248 36.72L40.5528 35.224L43.2328 32.4H44.6728L42.2568 35L41.5368 35.768L40.6248 36.72ZM39.4648 38V32.4H40.7528V38H39.4648ZM43.2968 38L41.3048 35.56L42.1528 34.64L44.8088 38H43.2968Z" fill="black"/>
</svg>
