<svg width="55" height="41" viewBox="0 0 55 41" fill="none" xmlns="http://www.w3.org/2000/svg">
<path d="M3.93384 38.096C3.50184 38.096 3.09918 38.0267 2.72584 37.888C2.35784 37.744 2.03784 37.5413 1.76584 37.28C1.49384 37.0187 1.28051 36.712 1.12584 36.36C0.97651 36.008 0.901844 35.6213 0.901844 35.2C0.901844 34.7787 0.97651 34.392 1.12584 34.04C1.28051 33.688 1.49384 33.3813 1.76584 33.12C2.04318 32.8587 2.36584 32.6587 2.73384 32.52C3.10184 32.376 3.50451 32.304 3.94184 32.304C4.42718 32.304 4.86451 32.3893 5.25384 32.56C5.64851 32.7253 5.97918 32.9707 6.24584 33.296L5.41384 34.064C5.22184 33.8453 5.00851 33.6827 4.77384 33.576C4.53918 33.464 4.28318 33.408 4.00584 33.408C3.74451 33.408 3.50451 33.4507 3.28584 33.536C3.06718 33.6213 2.87784 33.744 2.71784 33.904C2.55784 34.064 2.43251 34.2533 2.34184 34.472C2.25651 34.6907 2.21384 34.9333 2.21384 35.2C2.21384 35.4667 2.25651 35.7093 2.34184 35.928C2.43251 36.1467 2.55784 36.336 2.71784 36.496C2.87784 36.656 3.06718 36.7787 3.28584 36.864C3.50451 36.9493 3.74451 36.992 4.00584 36.992C4.28318 36.992 4.53918 36.9387 4.77384 36.832C5.00851 36.72 5.22184 36.552 5.41384 36.328L6.24584 37.096C5.97918 37.4213 5.64851 37.6693 5.25384 37.84C4.86451 38.0107 4.42451 38.096 3.93384 38.096ZM6.28347 38L8.77947 32.4H10.0595L12.5635 38H11.2035L9.15547 33.056H9.66747L7.61147 38H6.28347ZM7.53147 36.8L7.87547 35.816H10.7555L11.1075 36.8H7.53147ZM14.0232 38V33.456H12.2312V32.4H17.1112V33.456H15.3192V38H14.0232ZM19.0005 34.656H21.6965V35.664H19.0005V34.656ZM19.0965 36.96H22.1445V38H17.8085V32.4H22.0405V33.44H19.0965V36.96ZM25.8797 38.096C25.4371 38.096 25.0291 38.0267 24.6557 37.888C24.2877 37.744 23.9651 37.5413 23.6877 37.28C23.4157 37.0187 23.2024 36.712 23.0477 36.36C22.8984 36.008 22.8237 35.6213 22.8237 35.2C22.8237 34.7787 22.8984 34.392 23.0477 34.04C23.2024 33.688 23.4184 33.3813 23.6957 33.12C23.9731 32.8587 24.2984 32.6587 24.6717 32.52C25.0451 32.376 25.4557 32.304 25.9037 32.304C26.3997 32.304 26.8451 32.3867 27.2397 32.552C27.6397 32.7173 27.9757 32.9573 28.2477 33.272L27.4157 34.04C27.2131 33.8267 26.9917 33.6693 26.7517 33.568C26.5117 33.4613 26.2504 33.408 25.9677 33.408C25.6957 33.408 25.4477 33.4507 25.2237 33.536C24.9997 33.6213 24.8051 33.744 24.6397 33.904C24.4797 34.064 24.3544 34.2533 24.2637 34.472C24.1784 34.6907 24.1357 34.9333 24.1357 35.2C24.1357 35.4613 24.1784 35.7013 24.2637 35.92C24.3544 36.1387 24.4797 36.3307 24.6397 36.496C24.8051 36.656 24.9971 36.7787 25.2157 36.864C25.4397 36.9493 25.6851 36.992 25.9517 36.992C26.2077 36.992 26.4557 36.952 26.6957 36.872C26.9411 36.7867 27.1784 36.6453 27.4077 36.448L28.1437 37.384C27.8397 37.6133 27.4851 37.7893 27.0797 37.912C26.6797 38.0347 26.2797 38.096 25.8797 38.096ZM26.9597 37.216V35.112H28.1437V37.384L26.9597 37.216ZM32.0676 38.096C31.6249 38.096 31.2143 38.024 30.8356 37.88C30.4623 37.736 30.1369 37.5333 29.8596 37.272C29.5876 37.0107 29.3743 36.704 29.2196 36.352C29.0703 36 28.9956 35.616 28.9956 35.2C28.9956 34.784 29.0703 34.4 29.2196 34.048C29.3743 33.696 29.5903 33.3893 29.8676 33.128C30.1449 32.8667 30.4703 32.664 30.8436 32.52C31.2169 32.376 31.6223 32.304 32.0596 32.304C32.5023 32.304 32.9076 32.376 33.2756 32.52C33.6489 32.664 33.9716 32.8667 34.2436 33.128C34.5209 33.3893 34.7369 33.696 34.8916 34.048C35.0463 34.3947 35.1236 34.7787 35.1236 35.2C35.1236 35.616 35.0463 36.0027 34.8916 36.36C34.7369 36.712 34.5209 37.0187 34.2436 37.28C33.9716 37.536 33.6489 37.736 33.2756 37.88C32.9076 38.024 32.5049 38.096 32.0676 38.096ZM32.0596 36.992C32.3103 36.992 32.5396 36.9493 32.7476 36.864C32.9609 36.7787 33.1476 36.656 33.3076 36.496C33.4676 36.336 33.5903 36.1467 33.6756 35.928C33.7663 35.7093 33.8116 35.4667 33.8116 35.2C33.8116 34.9333 33.7663 34.6907 33.6756 34.472C33.5903 34.2533 33.4676 34.064 33.3076 33.904C33.1529 33.744 32.9689 33.6213 32.7556 33.536C32.5423 33.4507 32.3103 33.408 32.0596 33.408C31.8089 33.408 31.5769 33.4507 31.3636 33.536C31.1556 33.6213 30.9716 33.744 30.8116 33.904C30.6516 34.064 30.5263 34.2533 30.4356 34.472C30.3503 34.6907 30.3076 34.9333 30.3076 35.2C30.3076 35.4613 30.3503 35.704 30.4356 35.928C30.5263 36.1467 30.6489 36.336 30.8036 36.496C30.9636 36.656 31.1503 36.7787 31.3636 36.864C31.5769 36.9493 31.8089 36.992 32.0596 36.992ZM36.0976 38V32.4H38.5216C39.0229 32.4 39.4549 32.4827 39.8176 32.648C40.1803 32.808 40.4603 33.04 40.6576 33.344C40.8549 33.648 40.9536 34.0107 40.9536 34.432C40.9536 34.848 40.8549 35.208 40.6576 35.512C40.4603 35.8107 40.1803 36.04 39.8176 36.2C39.4549 36.36 39.0229 36.44 38.5216 36.44H36.8176L37.3936 35.872V38H36.0976ZM39.6576 38L38.2576 35.968H39.6416L41.0576 38H39.6576ZM37.3936 36.016L36.8176 35.408H38.4496C38.8496 35.408 39.1483 35.3227 39.3456 35.152C39.5429 34.976 39.6416 34.736 39.6416 34.432C39.6416 34.1227 39.5429 33.8827 39.3456 33.712C39.1483 33.5413 38.8496 33.456 38.4496 33.456H36.8176L37.3936 32.84V36.016ZM41.9804 38V32.4H43.2764V38H41.9804ZM45.7974 34.656H48.4934V35.664H45.7974V34.656ZM45.8934 36.96H48.9414V38H44.6054V32.4H48.8374V33.44H45.8934V36.96ZM51.8126 38.096C51.3646 38.096 50.9353 38.0373 50.5246 37.92C50.1139 37.7973 49.7833 37.64 49.5326 37.448L49.9726 36.472C50.2126 36.6427 50.4953 36.784 50.8206 36.896C51.1513 37.0027 51.4846 37.056 51.8206 37.056C52.0766 37.056 52.2819 37.032 52.4366 36.984C52.5966 36.9307 52.7139 36.8587 52.7886 36.768C52.8633 36.6773 52.9006 36.5733 52.9006 36.456C52.9006 36.3067 52.8419 36.1893 52.7246 36.104C52.6073 36.0133 52.4526 35.9413 52.2606 35.888C52.0686 35.8293 51.8553 35.776 51.6206 35.728C51.3913 35.6747 51.1593 35.6107 50.9246 35.536C50.6953 35.4613 50.4846 35.3653 50.2926 35.248C50.1006 35.1307 49.9433 34.976 49.8206 34.784C49.7033 34.592 49.6446 34.3467 49.6446 34.048C49.6446 33.728 49.7299 33.4373 49.9006 33.176C50.0766 32.9093 50.3379 32.6987 50.6846 32.544C51.0366 32.384 51.4766 32.304 52.0046 32.304C52.3566 32.304 52.7033 32.3467 53.0446 32.432C53.3859 32.512 53.6873 32.6347 53.9486 32.8L53.5486 33.784C53.2873 33.6347 53.0259 33.5253 52.7646 33.456C52.5033 33.3813 52.2473 33.344 51.9966 33.344C51.7459 33.344 51.5406 33.3733 51.3806 33.432C51.2206 33.4907 51.1059 33.568 51.0366 33.664C50.9673 33.7547 50.9326 33.8613 50.9326 33.984C50.9326 34.128 50.9913 34.2453 51.1086 34.336C51.2259 34.4213 51.3806 34.4907 51.5726 34.544C51.7646 34.5973 51.9753 34.6507 52.2046 34.704C52.4393 34.7573 52.6713 34.8187 52.9006 34.888C53.1353 34.9573 53.3486 35.0507 53.5406 35.168C53.7326 35.2853 53.8873 35.44 54.0046 35.632C54.1273 35.824 54.1886 36.0667 54.1886 36.36C54.1886 36.6747 54.1006 36.9627 53.9246 37.224C53.7486 37.4853 53.4846 37.696 53.1326 37.856C52.7859 38.016 52.3459 38.096 51.8126 38.096Z" fill="black"/>
<path d="M16.405 2.45733e-05H25.124C25.3322 -6.75751e-05 25.5378 0.0469201 25.7257 0.137541C25.9136 0.228161 26.079 0.360116 26.2098 0.523724C26.3137 0.648032 26.3937 0.79081 26.4457 0.944737C26.5013 1.09659 26.5295 1.25725 26.5291 1.41915V10.1865C26.5283 10.3782 26.4896 10.5678 26.4152 10.7441C26.3408 10.9205 26.2323 11.08 26.096 11.2134C25.834 11.4663 25.4864 11.6088 25.124 11.6118H16.405C16.2274 11.609 16.052 11.5714 15.8886 11.5009C15.7168 11.4336 15.5601 11.3323 15.4277 11.2028C15.2953 11.0734 15.19 10.9184 15.1179 10.7472C15.0396 10.5709 14.9994 10.3797 15 10.1865V1.41915C15.0022 1.07642 15.1255 0.745756 15.3477 0.486757L15.4067 0.429253C15.5274 0.304831 15.6693 0.203278 15.8255 0.129409C16.0076 0.0456318 16.205 0.00154539 16.405 2.45733e-05ZM29.8617 13.4026H38.5868C38.7978 13.4014 39.0064 13.4484 39.1968 13.5402C39.3841 13.6317 39.5493 13.7634 39.6808 13.9263C39.7821 14.0486 39.8619 14.1875 39.9166 14.3371C39.9722 14.4896 40.0005 14.651 40 14.8135V23.5809C39.9995 23.7709 39.9608 23.9589 39.8861 24.1333C39.8116 24.3093 39.7031 24.4685 39.5669 24.6016C39.4368 24.7282 39.2834 24.828 39.1155 24.8953C38.9504 24.9642 38.7736 24.9998 38.595 25H29.8617C29.6841 24.9988 29.5082 24.9639 29.3432 24.8973C29.1771 24.8307 29.0252 24.7324 28.8959 24.6077C28.7586 24.4747 28.6487 24.3156 28.5726 24.1395C28.4961 23.9634 28.4566 23.7732 28.4567 23.5809V14.8238C28.4561 14.6531 28.4872 14.4839 28.5482 14.3247C28.6068 14.1656 28.6928 14.0182 28.8024 13.8894L28.8593 13.8319C28.9805 13.7076 29.1232 13.6067 29.2802 13.5341C29.4623 13.4483 29.6608 13.4034 29.8617 13.4026ZM38.5868 14.8176H29.8617V23.5911C30.61 23.5911 38.5828 23.5911 38.5909 23.5911C38.5909 22.8518 38.5909 14.8217 38.5909 14.8176H38.5868ZM16.405 13.4026H25.124C25.3322 13.4025 25.5378 13.4495 25.7257 13.5401C25.9136 13.6308 26.079 13.7627 26.2098 13.9263C26.3126 14.0476 26.3926 14.1868 26.4457 14.3371C26.5013 14.4896 26.5295 14.651 26.5291 14.8135V23.5809C26.5286 23.7709 26.4899 23.9589 26.4152 24.1333C26.3423 24.3102 26.2335 24.4697 26.096 24.6016C25.834 24.8545 25.4864 24.997 25.124 25H16.405C16.228 24.9989 16.0528 24.9641 15.8886 24.8973C15.7216 24.8312 15.569 24.7328 15.4392 24.6077C15.3019 24.4752 15.1926 24.3159 15.1179 24.1395C15.0412 23.967 15.0011 23.7802 15 23.5911V14.8238C15.0005 14.6532 15.0315 14.4842 15.0915 14.3247C15.1509 14.1655 15.2376 14.0182 15.3477 13.8894L15.4067 13.8319C15.527 13.7074 15.669 13.6065 15.8255 13.5341C16.007 13.4485 16.2047 13.4037 16.405 13.4026ZM25.124 14.8176H16.405V23.5911C17.1513 23.5911 25.1261 23.5911 25.1322 23.5911C25.1322 22.8518 25.1322 14.8217 25.1322 14.8176H25.124ZM29.8617 2.45733e-05H38.5868C38.7978 -0.00123323 39.0064 0.0458107 39.1968 0.137624C39.3841 0.229057 39.5493 0.36085 39.6808 0.523724C39.7831 0.649063 39.863 0.791557 39.9166 0.944737C39.9722 1.09659 40.0004 1.25725 40 1.41915V10.1865C39.9998 10.3772 39.961 10.5659 39.8861 10.741C39.8112 10.9167 39.7027 11.0759 39.5669 11.2092C39.4318 11.336 39.2737 11.435 39.1013 11.5009C38.9359 11.5689 38.7592 11.6044 38.5807 11.6056H29.8617C29.6838 11.6048 29.5078 11.5693 29.3432 11.5009C29.1776 11.4342 29.0259 11.3366 28.8959 11.2134C28.7586 11.0803 28.6487 10.9212 28.5726 10.7451C28.4959 10.5683 28.4564 10.3774 28.4567 10.1844V1.41915C28.4564 1.24918 28.4874 1.08063 28.5482 0.922146C28.6064 0.762824 28.6925 0.615356 28.8024 0.486757L28.8593 0.429253C28.9809 0.304934 29.1234 0.203411 29.2802 0.129409C29.4628 0.0453496 29.661 0.0012566 29.8617 2.45733e-05ZM38.5868 1.41504H29.8617V10.1927C30.61 10.1927 38.5828 10.1927 38.5909 10.1927C38.5909 9.45331 38.5909 1.4212 38.5909 1.41915L38.5868 1.41504ZM25.1301 1.41504H16.405V10.1885C17.1513 10.1885 25.1261 10.1885 25.1322 10.1885C25.1322 9.44921 25.1322 1.41709 25.1322 1.41504H25.1301Z" fill="black"/>
</svg>
