<svg width="29" height="41" viewBox="0 0 29 41" fill="none" xmlns="http://www.w3.org/2000/svg">
<path d="M11.25 17.5V24.25H6.5V12.5V11.75H5.75H3.81066L14.5 1.06066L25.1893 11.75H23.25H22.5V12.5V24.25H17.75V17.5V16.75H17H12H11.25V17.5Z" stroke="black" stroke-width="1.5"/>
<path d="M5.89463 32.4H7.19063V38H5.89463V32.4ZM3.35063 38H2.05463V32.4H3.35063V38ZM5.99063 35.704H3.25463V34.608H5.99063V35.704ZM11.2356 38.096C10.7929 38.096 10.3822 38.024 10.0036 37.88C9.63023 37.736 9.3049 37.5333 9.02756 37.272C8.75556 37.0107 8.54223 36.704 8.38756 36.352C8.23823 36 8.16356 35.616 8.16356 35.2C8.16356 34.784 8.23823 34.4 8.38756 34.048C8.54223 33.696 8.75823 33.3893 9.03556 33.128C9.3129 32.8667 9.63823 32.664 10.0116 32.52C10.3849 32.376 10.7902 32.304 11.2276 32.304C11.6702 32.304 12.0756 32.376 12.4436 32.52C12.8169 32.664 13.1396 32.8667 13.4116 33.128C13.6889 33.3893 13.9049 33.696 14.0596 34.048C14.2142 34.3947 14.2916 34.7787 14.2916 35.2C14.2916 35.616 14.2142 36.0027 14.0596 36.36C13.9049 36.712 13.6889 37.0187 13.4116 37.28C13.1396 37.536 12.8169 37.736 12.4436 37.88C12.0756 38.024 11.6729 38.096 11.2356 38.096ZM11.2276 36.992C11.4782 36.992 11.7076 36.9493 11.9156 36.864C12.1289 36.7787 12.3156 36.656 12.4756 36.496C12.6356 36.336 12.7582 36.1467 12.8436 35.928C12.9342 35.7093 12.9796 35.4667 12.9796 35.2C12.9796 34.9333 12.9342 34.6907 12.8436 34.472C12.7582 34.2533 12.6356 34.064 12.4756 33.904C12.3209 33.744 12.1369 33.6213 11.9236 33.536C11.7102 33.4507 11.4782 33.408 11.2276 33.408C10.9769 33.408 10.7449 33.4507 10.5316 33.536C10.3236 33.6213 10.1396 33.744 9.97956 33.904C9.81956 34.064 9.69423 34.2533 9.60356 34.472C9.51823 34.6907 9.47556 34.9333 9.47556 35.2C9.47556 35.4613 9.51823 35.704 9.60356 35.928C9.69423 36.1467 9.8169 36.336 9.97156 36.496C10.1316 36.656 10.3182 36.7787 10.5316 36.864C10.7449 36.9493 10.9769 36.992 11.2276 36.992ZM15.2656 38V32.4H16.3376L18.7216 36.352H18.1536L20.4976 32.4H21.5616L21.5776 38H20.3616L20.3536 34.264H20.5776L18.7056 37.408H18.1216L16.2096 34.264H16.4816V38H15.2656ZM24.0982 34.656H26.7942V35.664H24.0982V34.656ZM24.1942 36.96H27.2422V38H22.9062V32.4H27.1382V33.44H24.1942V36.96Z" fill="black"/>
</svg>
