<svg width="67" height="42" viewBox="0 0 67 42" fill="none" xmlns="http://www.w3.org/2000/svg">
<path d="M22 10.0207L33.5274 1L45.1717 10.0207V26H22V10.0207Z" stroke="black" stroke-miterlimit="10"/>
<path d="M23.9102 10.5353L33.6521 2.91406L43.4915 10.5353V24.0391H23.9102V10.5353Z" stroke="black" stroke-miterlimit="10"/>
<path d="M32.7284 14.3793C32.7706 14.0624 32.7421 13.7401 32.6451 13.4354C32.548 13.1308 32.3848 12.8514 32.167 12.6173C32.0335 12.6977 31.8805 12.7402 31.7246 12.7402C31.5687 12.7402 31.4157 12.6977 31.2821 12.6173C31.2867 12.7633 31.2531 12.9081 31.1848 13.0373C31.1164 13.1665 31.0156 13.2756 30.8923 13.3541C30.7401 13.453 30.5581 13.4958 30.3777 13.4749C29.9879 13.4398 29.7228 13.1591 29.6292 12.629C29.5123 12.6982 29.3804 12.7383 29.2446 12.7457C29.1089 12.7532 28.9734 12.7279 28.8496 12.6718C28.6765 12.5937 28.5379 12.4551 28.4597 12.282C28.3717 12.09 28.3598 11.8719 28.4264 11.6715C28.493 11.4711 28.633 11.3034 28.8184 11.2022C28.6953 11.1333 28.5913 11.0349 28.5158 10.9158C28.4402 10.7967 28.3955 10.6607 28.3857 10.52C28.3697 10.3342 28.4209 10.1489 28.5299 9.99759C28.6539 9.82654 28.8369 9.70755 29.0436 9.66362C29.2503 9.6197 29.4659 9.65396 29.6487 9.75979C29.6454 9.6468 29.6654 9.53434 29.7075 9.42943C29.7496 9.32452 29.8128 9.2294 29.8933 9.15003C29.9738 9.07065 30.0697 9.00871 30.1752 8.96807C30.2807 8.92744 30.3934 8.90898 30.5064 8.91385C30.9274 8.91385 31.1808 9.19843 31.286 9.75979C31.3993 9.69435 31.5262 9.65608 31.6567 9.64796C31.7873 9.63984 31.9179 9.66211 32.0384 9.71301C32.2075 9.78535 32.3456 9.91515 32.4282 10.0795C32.6387 10.4693 32.5218 10.8591 32.093 11.1944C32.1905 11.2469 32.2757 11.3196 32.3429 11.4077C32.4102 11.4958 32.4578 11.5971 32.4828 11.7051C32.4964 11.862 32.4964 12.0198 32.4828 12.1768C32.4828 12.2235 32.4828 12.2859 32.4828 12.3171C32.7241 12.5777 32.9089 12.8854 33.0256 13.2208C33.1424 13.5562 33.1885 13.9122 33.1611 14.2663V14.3754H33.6367C33.6367 14.1649 33.6367 13.9505 33.6718 13.7439C33.7312 13.2272 33.9507 12.7419 34.2994 12.3561C34.3176 12.3376 34.3318 12.3156 34.3411 12.2915C34.3505 12.2674 34.3549 12.2416 34.354 12.2157C34.283 12.0284 34.2835 11.8215 34.3554 11.6345C34.4274 11.4476 34.5656 11.2936 34.7438 11.2022C34.6186 11.1347 34.5123 11.0369 34.4346 10.9178C34.357 10.7986 34.3105 10.6618 34.2994 10.52C34.282 10.3298 34.3317 10.1395 34.4398 9.98199C34.5656 9.8165 34.7475 9.70262 34.9514 9.66171C35.1552 9.6208 35.3669 9.65567 35.5469 9.75979C35.5452 9.62676 35.5751 9.49523 35.634 9.37598C35.693 9.25672 35.7793 9.15312 35.8861 9.07368C36.0357 8.96302 36.2186 8.90664 36.4045 8.91385C36.8256 8.91385 37.0789 9.19453 37.1842 9.75979C37.2977 9.69492 37.4245 9.65697 37.5549 9.64886C37.6854 9.64075 37.816 9.6627 37.9366 9.71301C38.1057 9.78535 38.2438 9.91515 38.3264 10.0795C38.533 10.4693 38.42 10.8591 37.9873 11.1983C38.0998 11.259 38.1969 11.3447 38.2713 11.4487C38.3456 11.5528 38.3951 11.6725 38.4161 11.7986C38.4469 11.989 38.4081 12.1841 38.3069 12.3483C38.0769 12.7381 37.7027 12.82 37.1725 12.629C37.04 13.2254 36.7827 13.4827 36.3071 13.4671C35.8315 13.4515 35.6054 13.163 35.5274 12.6446C35.3865 12.6881 35.2415 12.7168 35.0947 12.7303C34.9349 12.7162 34.7769 12.6861 34.623 12.6407C34.4111 12.8731 34.253 13.1494 34.16 13.45C34.067 13.7505 34.0414 14.0678 34.085 14.3793H34.6932C34.931 14.3793 35.0284 14.4963 34.9621 14.7185C34.8534 15.0637 34.8236 15.4289 34.8748 15.7872C34.9261 16.1455 35.0572 16.4876 35.2584 16.7885C35.4416 17.0809 35.6483 17.3732 35.8003 17.6695C36.6306 19.108 36.4942 20.5114 35.6288 21.8797C35.5003 22.0784 35.3555 22.2662 35.196 22.4411C35.1241 22.5128 35.0284 22.5557 34.9271 22.5619C33.9018 22.5619 32.8804 22.5619 31.8552 22.5619C31.768 22.5623 31.6841 22.5288 31.6213 22.4684C31.0675 21.8085 30.681 21.0249 30.4947 20.1839C30.3532 19.4109 30.4855 18.6128 30.8689 17.9268C31.0482 17.5876 31.2587 17.268 31.4575 16.9405C31.7538 16.5305 31.9233 16.0425 31.9448 15.5371C31.9376 15.2876 31.9049 15.0394 31.8474 14.7964C31.7811 14.4885 31.8474 14.4066 32.1554 14.4066L32.7284 14.3793ZM32.362 14.8393C32.362 14.8783 32.362 14.9056 32.362 14.9329C32.5002 15.6486 32.3533 16.39 31.9526 16.999C31.7343 17.3654 31.5004 17.7202 31.2977 18.0944C30.9465 18.711 30.8302 19.4338 30.9703 20.1294C31.1334 20.8391 31.4501 21.5044 31.8981 22.0785C31.9389 22.1142 31.9921 22.1324 32.0462 22.1292C32.9584 22.1292 33.868 22.1292 34.775 22.1292C34.8099 22.1285 34.8442 22.1205 34.8757 22.1057C34.9073 22.0909 34.9354 22.0697 34.9583 22.0434C35.1231 21.8361 35.2729 21.6172 35.4066 21.3885C35.7397 20.8479 35.911 20.2231 35.8999 19.5881C35.8889 18.9531 35.696 18.3347 35.3442 17.8059C35.1649 17.5214 34.9855 17.2368 34.814 16.9483C34.4772 16.4035 34.3394 15.7588 34.4242 15.1239C34.4242 15.0381 34.4476 14.9524 34.4632 14.8627L32.362 14.8393ZM30.4791 10.7422C30.3598 10.7422 30.2454 10.7893 30.1607 10.8732C30.076 10.9572 30.0279 11.0712 30.0269 11.1905C30.0278 11.3075 30.0736 11.4196 30.1548 11.5038C30.2361 11.588 30.3466 11.6377 30.4635 11.6427C30.5261 11.6485 30.5893 11.6412 30.649 11.6212C30.7086 11.6013 30.7635 11.5691 30.81 11.5267C30.8565 11.4843 30.8936 11.4327 30.9191 11.3751C30.9445 11.3176 30.9576 11.2553 30.9576 11.1924C30.9576 11.1295 30.9445 11.0673 30.9191 11.0097C30.8936 10.9522 30.8565 10.9005 30.81 10.8582C30.7635 10.8158 30.7086 10.7836 30.649 10.7636C30.5893 10.7436 30.5261 10.7363 30.4635 10.7422H30.4791ZM36.8411 11.1866C36.8404 11.0971 36.8131 11.0099 36.7628 10.936C36.7124 10.8621 36.6413 10.8047 36.5584 10.7712C36.4755 10.7377 36.3845 10.7295 36.2969 10.7478C36.2093 10.766 36.1291 10.8097 36.0665 10.8735C36.0038 10.9373 35.9614 11.0182 35.9447 11.1061C35.928 11.194 35.9377 11.2848 35.9727 11.3671C36.0076 11.4495 36.0662 11.5196 36.141 11.5686C36.2158 11.6177 36.3034 11.6434 36.3928 11.6427C36.5104 11.6377 36.6215 11.5874 36.7028 11.5024C36.7842 11.4174 36.8296 11.3042 36.8295 11.1866H36.8411ZM29.7462 11.7908C29.6877 11.5023 29.5045 11.5101 29.3057 11.5569H29.177C29.0994 11.5662 29.027 11.6005 28.9707 11.6547C28.9144 11.7088 28.8774 11.7799 28.8652 11.8571C28.8548 11.9324 28.8689 12.009 28.9054 12.0757C28.9419 12.1424 28.9989 12.1956 29.0679 12.2274C29.1387 12.263 29.2199 12.2724 29.2969 12.2539C29.374 12.2353 29.442 12.19 29.4889 12.1261C29.5708 12.0208 29.6565 11.8961 29.7345 11.7908H29.7462ZM31.2042 11.7908C31.286 11.9039 31.3757 12.0364 31.4809 12.1612C31.5281 12.2154 31.5915 12.2529 31.6617 12.2684C31.7319 12.2838 31.8052 12.2763 31.8708 12.2469C31.9371 12.2197 31.9937 12.1731 32.0333 12.1134C32.0729 12.0536 32.0937 11.9834 32.093 11.9117C32.0918 11.8407 32.0687 11.7719 32.0268 11.7147C31.9849 11.6574 31.9263 11.6146 31.8591 11.592C31.7928 11.5725 31.7187 11.5725 31.6486 11.5569C31.4342 11.5101 31.2587 11.5023 31.1925 11.7908H31.2042ZM35.6716 11.7908C35.5118 11.5296 35.5118 11.5296 35.2272 11.5725H35.0986C35.0197 11.578 34.9449 11.6101 34.8865 11.6634C34.828 11.7168 34.7893 11.7883 34.7767 11.8665C34.7641 11.9446 34.7782 12.0247 34.8168 12.0937C34.8554 12.1628 34.9163 12.2168 34.9894 12.2469C35.0614 12.2802 35.1427 12.2875 35.2195 12.2676C35.2962 12.2477 35.3637 12.2018 35.4105 12.1378C35.4884 12.0169 35.5703 11.8961 35.66 11.7752L35.6716 11.7908ZM37.1101 11.7908C37.1998 11.9156 37.2895 12.0481 37.3947 12.1807C37.4265 12.2158 37.4653 12.2439 37.5086 12.2631C37.5519 12.2823 37.5988 12.2922 37.6462 12.2922C37.6935 12.2922 37.7404 12.2823 37.7837 12.2631C37.827 12.2439 37.8658 12.2158 37.8976 12.1807C37.9342 12.1481 37.9635 12.1082 37.9835 12.0635C38.0036 12.0188 38.014 11.9704 38.014 11.9214C38.014 11.8724 38.0036 11.824 37.9835 11.7793C37.9635 11.7347 37.9342 11.6947 37.8976 11.6622C37.7207 11.5566 37.5119 11.5179 37.3089 11.553C37.2505 11.553 37.192 11.6895 37.1296 11.7596C37.1229 11.7673 37.115 11.7738 37.1062 11.7791L37.1101 11.7908ZM29.7462 10.6213L29.524 10.3172C29.5119 10.2974 29.4975 10.2791 29.4811 10.2627C29.4306 10.2065 29.3636 10.1679 29.2896 10.1525C29.2157 10.1371 29.1388 10.1457 29.0701 10.177C29.0014 10.2083 28.9445 10.2607 28.9076 10.3266C28.8708 10.3925 28.8559 10.4684 28.8652 10.5434C28.8773 10.6186 28.9128 10.6881 28.9667 10.742C29.0206 10.7959 29.0901 10.8314 29.1653 10.8435C29.2121 10.8435 29.2589 10.8435 29.3057 10.8435C29.4928 10.8747 29.676 10.8825 29.7345 10.594L29.7462 10.6213ZM31.1886 10.6213C31.3562 10.8786 31.3562 10.8786 31.6447 10.8357H31.7733C31.8513 10.8229 31.923 10.7852 31.9778 10.7283C32.0326 10.6714 32.0675 10.5983 32.0774 10.52C32.0856 10.4445 32.0697 10.3683 32.0318 10.3024C31.994 10.2366 31.9362 10.1844 31.8669 10.1535C31.7965 10.119 31.7162 10.1102 31.64 10.1287C31.5638 10.1472 31.4964 10.1919 31.4498 10.2549C31.3562 10.364 31.2587 10.4888 31.1769 10.6135L31.1886 10.6213ZM35.66 10.6213C35.582 10.5122 35.4923 10.3835 35.3949 10.2627C35.3514 10.1937 35.2847 10.1424 35.2068 10.1181C35.1289 10.0938 35.045 10.0981 34.9699 10.1301C34.8973 10.1629 34.8377 10.2192 34.801 10.2899C34.7642 10.3606 34.7523 10.4417 34.7672 10.52C34.7794 10.5952 34.8149 10.6647 34.8688 10.7186C34.9227 10.7725 34.9922 10.808 35.0674 10.8201C35.1142 10.8201 35.1649 10.8201 35.2077 10.8201C35.4105 10.8747 35.5898 10.8786 35.6483 10.594L35.66 10.6213ZM37.1062 10.6213C37.2661 10.8864 37.2661 10.8825 37.5506 10.8396H37.6637C37.7103 10.8473 37.7579 10.8457 37.8039 10.835C37.8499 10.8243 37.8933 10.8046 37.9317 10.7771C37.97 10.7496 38.0026 10.7148 38.0275 10.6747C38.0525 10.6346 38.0692 10.5899 38.0769 10.5434C38.0846 10.4968 38.083 10.4491 38.0723 10.4031C38.0616 10.3572 38.0419 10.3138 38.0144 10.2754C37.9868 10.237 37.952 10.2044 37.9119 10.1795C37.8718 10.1546 37.8272 10.1378 37.7806 10.1301C37.7065 10.0959 37.6226 10.0893 37.5439 10.1115C37.4653 10.1336 37.3972 10.1831 37.3518 10.251C37.2661 10.3718 37.1842 10.4888 37.1062 10.6096V10.6213ZM30.4791 10.2822C30.5921 10.3172 30.6506 10.2627 30.6857 10.1574C30.7208 10.0522 30.7714 9.9781 30.8065 9.88454C30.8327 9.81646 30.8362 9.74177 30.8165 9.67155C30.7968 9.60133 30.7551 9.53931 30.6974 9.4947C30.6329 9.45113 30.5569 9.42784 30.4791 9.42784C30.4013 9.42784 30.3252 9.45113 30.2608 9.4947C30.2031 9.53931 30.1613 9.60133 30.1416 9.67155C30.122 9.74177 30.1255 9.81646 30.1516 9.88454C30.1867 9.9781 30.2374 10.0639 30.2725 10.1574C30.3075 10.251 30.3426 10.3056 30.4791 10.2705V10.2822ZM36.4045 10.2822C36.5215 10.3289 36.5644 10.251 36.6033 10.1535C36.6423 10.0561 36.6852 9.9742 36.7203 9.88064C36.7464 9.81256 36.7499 9.73787 36.7303 9.66765C36.7106 9.59743 36.6688 9.53541 36.6111 9.4908C36.5467 9.44723 36.4706 9.42394 36.3928 9.42394C36.315 9.42394 36.239 9.44723 36.1745 9.4908C36.1165 9.53511 36.0747 9.59734 36.0557 9.66784C36.0366 9.73833 36.0414 9.81314 36.0693 9.88064C36.1044 9.9742 36.155 10.06 36.1862 10.1535C36.1911 10.1749 36.2004 10.1951 36.2135 10.2127C36.2265 10.2304 36.2431 10.2452 36.2621 10.2561C36.2811 10.2671 36.3022 10.274 36.324 10.2765C36.3459 10.279 36.3679 10.2769 36.3889 10.2705L36.4045 10.2822ZM30.4791 12.1105C30.3075 12.1105 30.3075 12.1105 30.2452 12.2469C30.1828 12.3834 30.1672 12.4185 30.1321 12.5081C30.1006 12.5798 30.0942 12.66 30.114 12.7357C30.1338 12.8114 30.1787 12.8782 30.2413 12.9252C30.3045 12.9663 30.3783 12.9882 30.4537 12.9882C30.5292 12.9882 30.603 12.9663 30.6662 12.9252C30.7312 12.8802 30.7782 12.8136 30.7989 12.7373C30.8196 12.661 30.8126 12.5798 30.7792 12.5081C30.7442 12.4146 30.6935 12.3288 30.6623 12.2352C30.6311 12.1417 30.5843 12.0793 30.4791 12.1105ZM36.3733 12.1105C36.2486 12.0715 36.1979 12.1417 36.1589 12.2469C36.12 12.3522 36.081 12.4185 36.0459 12.5081C36.0136 12.5794 36.0072 12.6597 36.0278 12.7351C36.0484 12.8106 36.0948 12.8765 36.1589 12.9213C36.2222 12.9624 36.296 12.9843 36.3714 12.9843C36.4468 12.9843 36.5206 12.9624 36.5839 12.9213C36.6523 12.8792 36.7033 12.8139 36.7276 12.7374C36.7519 12.6608 36.7479 12.5781 36.7164 12.5042C36.6813 12.4185 36.6345 12.3327 36.6033 12.2469C36.5722 12.1612 36.5059 12.0793 36.3811 12.1144L36.3733 12.1105Z" stroke="black" stroke-miterlimit="10"/>
<path d="M5.44931 33.4H6.74531V39H5.44931V33.4ZM2.90531 39H1.60931V33.4H2.90531V39ZM5.54531 36.704H2.80931V35.608H5.54531V36.704ZM10.7903 39.096C10.3476 39.096 9.93692 39.024 9.55825 38.88C9.18492 38.736 8.85958 38.5333 8.58225 38.272C8.31025 38.0107 8.09692 37.704 7.94225 37.352C7.79292 37 7.71825 36.616 7.71825 36.2C7.71825 35.784 7.79292 35.4 7.94225 35.048C8.09692 34.696 8.31292 34.3893 8.59025 34.128C8.86758 33.8667 9.19292 33.664 9.56625 33.52C9.93958 33.376 10.3449 33.304 10.7823 33.304C11.2249 33.304 11.6302 33.376 11.9983 33.52C12.3716 33.664 12.6943 33.8667 12.9663 34.128C13.2436 34.3893 13.4596 34.696 13.6143 35.048C13.7689 35.3947 13.8463 35.7787 13.8463 36.2C13.8463 36.616 13.7689 37.0027 13.6143 37.36C13.4596 37.712 13.2436 38.0187 12.9663 38.28C12.6943 38.536 12.3716 38.736 11.9983 38.88C11.6302 39.024 11.2276 39.096 10.7903 39.096ZM10.7823 37.992C11.0329 37.992 11.2623 37.9493 11.4703 37.864C11.6836 37.7787 11.8703 37.656 12.0303 37.496C12.1903 37.336 12.3129 37.1467 12.3983 36.928C12.4889 36.7093 12.5343 36.4667 12.5343 36.2C12.5343 35.9333 12.4889 35.6907 12.3983 35.472C12.3129 35.2533 12.1903 35.064 12.0303 34.904C11.8756 34.744 11.6916 34.6213 11.4783 34.536C11.2649 34.4507 11.0329 34.408 10.7823 34.408C10.5316 34.408 10.2996 34.4507 10.0863 34.536C9.87825 34.6213 9.69425 34.744 9.53425 34.904C9.37425 35.064 9.24892 35.2533 9.15825 35.472C9.07292 35.6907 9.03025 35.9333 9.03025 36.2C9.03025 36.4613 9.07292 36.704 9.15825 36.928C9.24892 37.1467 9.37158 37.336 9.52625 37.496C9.68625 37.656 9.87292 37.7787 10.0863 37.864C10.2996 37.9493 10.5316 37.992 10.7823 37.992ZM14.8203 39V33.4H15.8923L18.2763 37.352H17.7083L20.0523 33.4H21.1163L21.1323 39H19.9163L19.9083 35.264H20.1323L18.2603 38.408H17.6763L15.7643 35.264H16.0363V39H14.8203ZM23.6529 35.656H26.3489V36.664H23.6529V35.656ZM23.7489 37.96H26.7969V39H22.4609V33.4H26.6929V34.44H23.7489V37.96ZM31.8537 39.096C31.443 39.096 31.0777 39.0293 30.7577 38.896C30.4377 38.7627 30.1844 38.5813 29.9977 38.352C29.811 38.1227 29.7177 37.8587 29.7177 37.56C29.7177 37.2827 29.779 37.0347 29.9017 36.816C30.0244 36.592 30.219 36.384 30.4857 36.192C30.7524 35.9947 31.091 35.8027 31.5017 35.616C31.8004 35.4773 32.035 35.3547 32.2057 35.248C32.3764 35.1413 32.4964 35.04 32.5657 34.944C32.635 34.8427 32.6697 34.7413 32.6697 34.64C32.6697 34.5013 32.6217 34.3893 32.5257 34.304C32.435 34.2187 32.299 34.176 32.1177 34.176C31.9257 34.176 31.7764 34.224 31.6697 34.32C31.563 34.416 31.5097 34.5387 31.5097 34.688C31.5097 34.768 31.5257 34.848 31.5577 34.928C31.5897 35.0027 31.651 35.0907 31.7417 35.192C31.8324 35.288 31.9604 35.4133 32.1257 35.568L35.0777 38.304L34.3977 39.096L31.1417 36.072C30.955 35.9013 30.8057 35.7413 30.6937 35.592C30.5817 35.4427 30.499 35.296 30.4457 35.152C30.3977 35.008 30.3737 34.8587 30.3737 34.704C30.3737 34.432 30.4457 34.192 30.5897 33.984C30.7337 33.776 30.9364 33.616 31.1977 33.504C31.459 33.3867 31.7657 33.328 32.1177 33.328C32.443 33.328 32.723 33.3813 32.9577 33.488C33.1977 33.5893 33.3844 33.736 33.5177 33.928C33.6564 34.12 33.7257 34.3493 33.7257 34.616C33.7257 34.8507 33.667 35.0667 33.5497 35.264C33.4324 35.456 33.2484 35.6373 32.9977 35.808C32.7524 35.9787 32.4297 36.152 32.0297 36.328C31.7577 36.4507 31.5417 36.5707 31.3817 36.688C31.227 36.8 31.115 36.9147 31.0457 37.032C30.9764 37.1493 30.9417 37.28 30.9417 37.424C30.9417 37.5573 30.9817 37.6773 31.0617 37.784C31.147 37.8907 31.2644 37.9733 31.4137 38.032C31.563 38.0907 31.739 38.12 31.9417 38.12C32.267 38.12 32.5657 38.0453 32.8377 37.896C33.1097 37.7413 33.339 37.5147 33.5257 37.216C33.7177 36.912 33.8537 36.544 33.9337 36.112L34.9337 36.424C34.8217 36.968 34.6217 37.44 34.3337 37.84C34.0457 38.24 33.691 38.5493 33.2697 38.768C32.8484 38.9867 32.3764 39.096 31.8537 39.096ZM38.1796 39V33.4H39.4756V37.944H42.2836V39H38.1796ZM43.0078 39V33.4H44.3038V39H43.0078ZM47.2893 39L44.8733 33.4H46.2733L48.3853 38.36H47.5613L49.7053 33.4H50.9933L48.5693 39H47.2893ZM51.4609 39V33.4H52.7569V39H51.4609ZM54.0859 39V33.4H55.1579L58.4619 37.432H57.9419V33.4H59.2219V39H58.1579L54.8459 34.968H55.3659V39H54.0859ZM63.2508 39.096C62.8081 39.096 62.4001 39.0267 62.0268 38.888C61.6588 38.744 61.3361 38.5413 61.0588 38.28C60.7868 38.0187 60.5735 37.712 60.4188 37.36C60.2695 37.008 60.1948 36.6213 60.1948 36.2C60.1948 35.7787 60.2695 35.392 60.4188 35.04C60.5735 34.688 60.7895 34.3813 61.0668 34.12C61.3441 33.8587 61.6695 33.6587 62.0428 33.52C62.4161 33.376 62.8268 33.304 63.2748 33.304C63.7708 33.304 64.2161 33.3867 64.6108 33.552C65.0108 33.7173 65.3468 33.9573 65.6188 34.272L64.7868 35.04C64.5841 34.8267 64.3628 34.6693 64.1228 34.568C63.8828 34.4613 63.6215 34.408 63.3388 34.408C63.0668 34.408 62.8188 34.4507 62.5948 34.536C62.3708 34.6213 62.1761 34.744 62.0108 34.904C61.8508 35.064 61.7255 35.2533 61.6348 35.472C61.5495 35.6907 61.5068 35.9333 61.5068 36.2C61.5068 36.4613 61.5495 36.7013 61.6348 36.92C61.7255 37.1387 61.8508 37.3307 62.0108 37.496C62.1761 37.656 62.3681 37.7787 62.5868 37.864C62.8108 37.9493 63.0561 37.992 63.3228 37.992C63.5788 37.992 63.8268 37.952 64.0668 37.872C64.3121 37.7867 64.5495 37.6453 64.7788 37.448L65.5148 38.384C65.2108 38.6133 64.8561 38.7893 64.4508 38.912C64.0508 39.0347 63.6508 39.096 63.2508 39.096ZM64.3308 38.216V36.112H65.5148V38.384L64.3308 38.216Z" fill="black"/>
</svg>
