 <svg
                xmlns="http://www.w3.org/2000/svg"
                width="21"
                height="23"
                viewBox="0 0 21 23"
                fill="none"
              >
                <path
                  d="M10.5144 22.4907C8.25939 22.4907 6.00442 22.4951 3.75413 22.4907C1.66758 22.4863 0.00207927 20.9225 0.00207927 18.9546C-0.00259909 14.7376 0.00207927 10.5206 0.00207927 6.30365C0.00207927 5.64914 0.00675764 5.64475 0.685121 5.64475C1.76114 5.64475 2.84185 5.63157 3.91787 5.64914C4.30618 5.65354 4.46056 5.5525 4.50734 5.16155C4.8208 2.64454 6.30384 0.984106 8.85355 0.237348C12.4091 -0.80372 16.236 1.71329 16.4419 5.18352C16.4606 5.52175 16.5916 5.64914 16.9471 5.64914C18.0886 5.64036 19.2348 5.65793 20.3764 5.64036C20.8208 5.63157 21.0033 5.77653 20.9986 6.20262C20.9892 10.4679 21.0173 14.7288 20.9799 18.9941C20.9612 20.9928 19.2535 22.4907 17.1202 22.4907C14.9214 22.4907 12.7179 22.4907 10.5144 22.4907ZM10.4863 20.3119C12.7226 20.3119 14.9588 20.3163 17.1951 20.3076C18.0138 20.3032 18.6033 19.7892 18.6033 19.0425C18.6126 15.4492 18.6079 11.856 18.6126 8.26279C18.6126 7.95091 18.5003 7.80156 18.1495 7.81035C17.7705 7.82352 17.3869 7.82792 17.0079 7.81035C16.6337 7.79278 16.5167 7.95531 16.5214 8.28915C16.5307 8.69328 16.5541 9.09741 16.4793 9.50153C16.3436 10.2351 15.9038 10.6348 15.2535 10.5865C14.6033 10.5382 14.1775 10.0814 14.1448 9.36536C14.1261 8.96123 14.1307 8.5571 14.1448 8.15298C14.1541 7.91138 14.0606 7.81913 13.8033 7.81913C11.5997 7.82352 9.39624 7.82352 7.19273 7.81913C6.89331 7.81913 6.78103 7.95091 6.78571 8.21887C6.79506 8.59225 6.79039 8.96562 6.78571 9.339C6.77167 10.0858 6.35062 10.5602 5.67694 10.5865C4.99857 10.6129 4.50267 10.1297 4.46524 9.37854C4.44653 8.99198 4.4512 8.60103 4.45588 8.21008C4.46056 7.93334 4.33892 7.81035 4.04419 7.81913C3.66524 7.82792 3.28161 7.84109 2.90267 7.81474C2.44886 7.7796 2.30383 7.94652 2.30383 8.37261C2.31787 11.856 2.30851 15.3394 2.31319 18.8272C2.31319 19.7936 2.88395 20.3163 3.92255 20.3163C6.11202 20.3163 8.3015 20.3163 10.4863 20.3119ZM10.4535 5.64475C11.4313 5.64475 12.4091 5.64475 13.3822 5.64475C14.1541 5.64475 14.2524 5.53054 14.0699 4.82771C13.6302 3.15849 12.091 2.13938 10.1261 2.22284C8.53542 2.28873 7.11319 3.55822 6.84185 5.12202C6.77167 5.52615 6.91202 5.65354 7.3284 5.64914C8.367 5.63157 9.41027 5.64475 10.4535 5.64475Z"
                  fill="#FFCC7E"
                />
              </svg>