<svg width="20" height="19" viewBox="0 0 20 19" fill="none" xmlns="http://www.w3.org/2000/svg">
<path d="M19 18L14.657 13.8983M14.657 13.8983C15.3999 13.1967 15.9892 12.3638 16.3913 11.4471C16.7933 10.5304 17.0002 9.54789 17.0002 8.55566C17.0002 7.56344 16.7933 6.58093 16.3913 5.66424C15.9892 4.74754 15.3999 3.91461 14.657 3.213C13.9142 2.51139 13.0322 1.95485 12.0616 1.57514C11.091 1.19543 10.0507 1 9.00011 1C7.94952 1 6.90922 1.19543 5.9386 1.57514C4.96798 1.95485 4.08606 2.51139 3.34318 3.213C1.84287 4.62996 1 6.55178 1 8.55566C1 10.5596 1.84287 12.4814 3.34318 13.8983C4.84349 15.3153 6.87835 16.1113 9.00011 16.1113C11.1219 16.1113 13.1567 15.3153 14.657 13.8983Z" stroke="#212121" stroke-width="2" stroke-linecap="round" stroke-linejoin="round"/>
</svg>
