<svg
                xmlns="http://www.w3.org/2000/svg"
                width="22"
                height="20"
                viewBox="0 0 22 20"
                fill="none"
              >
                <path
                  d="M15.804 0C13.9005 0.0176805 12.1172 0.963589 10.9957 2.55042C9.8742 0.963589 8.09095 0.0176805 6.1874 0C2.64239 0.141444 -0.120558 3.20902 0.00405461 6.85121C0.00405461 11.1387 4.28384 15.7313 7.8804 18.8298C9.68513 20.3901 12.3149 20.3901 14.1196 18.8298C17.7119 15.7313 21.996 11.1387 21.996 6.85121C22.1206 3.2046 19.3533 0.137024 15.804 0ZM19.2416 6.85121C19.2416 9.3088 16.7279 12.8847 12.3493 16.6639C11.5672 17.3402 10.4242 17.3402 9.64216 16.6639C5.26355 12.8891 2.74982 9.31322 2.74982 6.85121C2.6295 4.7649 4.15922 2.97033 6.1831 2.82447C6.94366 2.88193 7.63118 3.16924 8.19408 3.61567C9.80974 4.76048 10.9914 6.80701 10.9914 6.80701C10.9914 6.80701 12.2117 4.68976 13.8704 3.55821C14.4161 3.14271 15.0778 2.87751 15.804 2.82447C17.8279 2.97033 19.3619 4.76932 19.2416 6.85121Z"
                  fill="#FFCC7E"
                />
              </svg>